<?xml version="1.0" standalone="no"?>
<!DOCTYPE svg PUBLIC "-//W3C//DTD SVG 20010904//EN"
 "http://www.w3.org/TR/2001/REC-SVG-20010904/DTD/svg10.dtd">
<svg version="1.0" xmlns="http://www.w3.org/2000/svg"
 width="642.000000pt" height="642.000000pt" viewBox="0 0 642.000000 642.000000"
 preserveAspectRatio="xMidYMid meet">
<metadata>
Created by potrace 1.11, written by Peter Selinger 2001-2013
</metadata>
<g transform="translate(0.000000,642.000000) scale(0.100000,-0.100000)"
fill="#000000" stroke="none">
<path d="M2890 6399 c-879 -96 -1647 -518 -2200 -1209 -539 -673 -783 -1589
-655 -2452 155 -1039 806 -1937 1745 -2404 314 -156 611 -249 975 -306 188
-29 576 -36 785 -14 868 92 1637 515 2190 1206 365 455 597 1024 672 1645 18
150 15 562 -6 719 -24 186 -61 364 -107 523 -324 1112 -1243 1975 -2374 2228
-245 55 -359 67 -660 70 -154 2 -318 -1 -365 -6z"/>
</g>
</svg>
